{
  "accessors": [
    {
      "bufferView": 2,
      "componentType": 5126,
      "count": 2369,
      "max": [
        0.7600177526473999,
        0.06741739809513092,
        0.24525566399097443
      ],
      "min": [
        -0.8782294988632202,
        -0.06741741299629211,
        -0.18295593559741974
      ],
      "type": "VEC3"
    },
    {
      "bufferView": 2,
      "byteOffset": 28428,
      "componentType": 5126,
      "count": 2369,
      "max": [
        1.0,
        0.9999887347221375,
        0.9999991059303284
      ],
      "min": [
        -0.9999921917915344,
        -0.9999887347221375,
        -0.9975919127464294
      ],
      "type": "VEC3"
    },
    {
      "bufferView": 3,
      "componentType": 5126,
      "count": 2369,
      "max": [
        0.98677659034729,
        1.0,
        0.9999921917915344,
        1.0
      ],
      "min": [
        -0.9998672604560852,
        -1.0,
        -0.9989908337593079,
        -1.0
      ],
      "type": "VEC4"
    },
    {
      "bufferView": 1,
      "componentType": 5126,
      "count": 2369,
      "max": [
        0.997614860534668,
        0.9992802739143372
      ],
      "min": [
        0.0007523566600866616,
        0.0008079318795353174
      ],
      "type": "VEC2"
    },
    {
      "bufferView": 1,
      "byteOffset": 18952,
      "componentType": 5126,
      "count": 2369,
      "max": [
        0.997614860534668,
        0.9992802739143372
      ],
      "min": [
        0.0007523566600866616,
        0.0008079318795353174
      ],
      "type": "VEC2"
    },
    {
      "bufferView": 1,
      "byteOffset": 37904,
      "componentType": 5126,
      "count": 2369,
      "max": [
        0.997614860534668,
        0.9992802739143372
      ],
      "min": [
        0.0007523566600866616,
        0.0008079318795353174
      ],
      "type": "VEC2"
    },
    {
      "bufferView": 0,
      "componentType": 5125,
      "count": 9414,
      "type": "SCALAR"
    },
    {
      "bufferView": 2,
      "byteOffset": 56856,
      "componentType": 5126,
      "count": 1345,
      "max": [
        0.5441446900367737,
        0.04351064935326576,
        0.06028527021408081
      ],
      "min": [
        -0.023678423836827278,
        -0.04351064935326576,
        -0.026736043393611908
      ],
      "type": "VEC3"
    },
    {
      "bufferView": 2,
      "byteOffset": 72996,
      "componentType": 5126,
      "count": 1345,
      "max": [
        1.0,
        0.9807853698730469,
        0.9994831085205078
      ],
      "min": [
        -0.9991083741188049,
        -0.9807853698730469,
        -0.9807853102684021
      ],
      "type": "VEC3"
    },
    {
      "bufferView": 3,
      "byteOffset": 37904,
      "componentType": 5126,
      "count": 1345,
      "max": [
        0.9942851066589355,
        1.0,
        0.998166024684906,
        1.0
      ],
      "min": [
        -0.9982093572616577,
        -1.0,
        -0.9855585098266602,
        1.0
      ],
      "type": "VEC4"
    },
    {
      "bufferView": 1,
      "byteOffset": 56856,
      "componentType": 5126,
      "count": 1345,
      "max": [
        0.9992802739143372,
        0.995949387550354
      ],
      "min": [
        0.0014581573195755482,
        0.000832092366181314
      ],
      "type": "VEC2"
    },
    {
      "bufferView": 1,
      "byteOffset": 67616,
      "componentType": 5126,
      "count": 1345,
      "max": [
        0.9992802739143372,
        0.995949387550354
      ],
      "min": [
        0.0014581573195755482,
        0.000832092366181314
      ],
      "type": "VEC2"
    },
    {
      "bufferView": 1,
      "byteOffset": 78376,
      "componentType": 5126,
      "count": 1345,
      "max": [
        0.9992802739143372,
        0.995949387550354
      ],
      "min": [
        0.0014581573195755482,
        0.000832092366181314
      ],
      "type": "VEC2"
    },
    {
      "bufferView": 0,
      "byteOffset": 37656,
      "componentType": 5125,
      "count": 4944,
      "type": "SCALAR"
    }
  ],
  "asset": {
    "extras": {
      "author": "Holmesfish (https://sketchfab.com/Holmesfish)",
      "license": "CC-BY-4.0 (http://creativecommons.org/licenses/by/4.0/)",
      "source": "https://sketchfab.com/3d-models/ancient-sword-lineage-ii-35c4a790b8df4559b511d0a11b73daa5",
      "title": "Ancient Sword. Lineage II."
    },
    "generator": "Sketchfab-16.95.0",
    "version": "2.0"
  },
  "bufferViews": [
    {
      "buffer": 0,
      "byteLength": 57432,
      "name": "floatBufferViews",
      "target": 34963
    },
    {
      "buffer": 0,
      "byteLength": 89136,
      "byteOffset": 57432,
      "byteStride": 8,
      "name": "floatBufferViews",
      "target": 34962
    },
    {
      "buffer": 0,
      "byteLength": 89136,
      "byteOffset": 146568,
      "byteStride": 12,
      "name": "floatBufferViews",
      "target": 34962
    },
    {
      "buffer": 0,
      "byteLength": 59424,
      "byteOffset": 235704,
      "byteStride": 16,
      "name": "floatBufferViews",
      "target": 34962
    }
  ],
  "buffers": [
    {
      "byteLength": 295128,
      "uri": "scene.bin"
    }
  ],
  "images": [
    {
      "uri": "textures/Material-Ancient-Sword_baseColor.png"
    },
    {
      "uri": "textures/Material-Ancient-Sword_metallicRoughness.png"
    },
    {
      "uri": "textures/Material-Ancient-Sword_normal.png"
    }
  ],
  "materials": [
    {
      "doubleSided": true,
      "name": "Material-Ancient-Sword",
      "normalTexture": {
        "index": 2
      },
      "occlusionTexture": {
        "index": 1
      },
      "pbrMetallicRoughness": {
        "baseColorTexture": {
          "index": 0
        },
        "metallicRoughnessTexture": {
          "index": 1
        }
      }
    }
  ],
  "meshes": [
    {
      "name": "Blade_low_Material-Ancient-Sword_0",
      "primitives": [
        {
          "attributes": {
            "NORMAL": 1,
            "POSITION": 0,
            "TANGENT": 2,
            "TEXCOORD_0": 3,
            "TEXCOORD_1": 4,
            "TEXCOORD_2": 5
          },
          "indices": 6,
          "material": 0,
          "mode": 4
        }
      ]
    },
    {
      "name": "Garda_low_Material-Ancient-Sword_0",
      "primitives": [
        {
          "attributes": {
            "NORMAL": 8,
            "POSITION": 7,
            "TANGENT": 9,
            "TEXCOORD_0": 10,
            "TEXCOORD_1": 11,
            "TEXCOORD_2": 12
          },
          "indices": 13,
          "material": 0,
          "mode": 4
        }
      ]
    }
  ],
  "nodes": [
    {
      "children": [
        1
      ],
      "matrix": [
        0.9493870018804316,
        0.3278669117458258,
        -0.13675137418204023,
        0.0,
        1.4067541385972896e-17,
        -0.39021504589985745,
        -0.9355562839144939,
        0.0,
        -0.3552430763937693,
        0.8762242070699956,
        -0.3654679810399093,
        0.0,
        0.0,
        0.0,
        0.0,
        1.0
      ],
      "name": "Sketchfab_model"
    },
    {
      "children": [
        2
      ],
      "matrix": [
        0.009999999776482582,
        0.0,
        0.0,
        0.0,
        0.0,
        0.0,
        0.009999999776482582,
        0.0,
        0.0,
        -0.009999999776482582,
        0.0,
        0.0,
        0.0,
        0.0,
        0.0,
        1.0
      ],
      "name": "AncientSwordApp1.fbx"
    },
    {
      "children": [
        3,
        5
      ],
      "name": "RootNode"
    },
    {
      "children": [
        4
      ],
      "matrix": [
        100.0,
        0.0,
        0.0,
        0.0,
        -0.0,
        -1.629206793918314e-05,
        -99.99999999999868,
        0.0,
        0.0,
        99.99999999999868,
        -1.629206793918314e-05,
        0.0,
        -23.486671447753906,
        -3.6801741123199463,
        5.905295665797894e-07,
        1.0
      ],
      "name": "Blade_low"
    },
    {
      "mesh": 0,
      "name": "Blade_low_Material-Ancient-Sword_0"
    },
    {
      "children": [
        6
      ],
      "matrix": [
        100.0,
        0.0,
        0.0,
        0.0,
        0.0,
        -1.629206793918314e-05,
        -99.99999999999868,
        0.0,
        0.0,
        99.99999999999868,
        -1.629206793918314e-05,
        0.0,
        51.50730514526367,
        -0.0010171905159950256,
        0.0,
        1.0
      ],
      "name": "Garda_low"
    },
    {
      "mesh": 1,
      "name": "Garda_low_Material-Ancient-Sword_0"
    }
  ],
  "samplers": [
    {
      "magFilter": 9729,
      "minFilter": 9987,
      "wrapS": 10497,
      "wrapT": 10497
    }
  ],
  "scene": 0,
  "scenes": [
    {
      "name": "Sketchfab_Scene",
      "nodes": [
        0
      ]
    }
  ],
  "textures": [
    {
      "sampler": 0,
      "source": 0
    },
    {
      "sampler": 0,
      "source": 1
    },
    {
      "sampler": 0,
      "source": 2
    }
  ]
}
